<!-- Generated by graphviz version 14.1.3 (20260303.0454)
 -->
<!-- Title: BRG Pages: 1 -->
<svg role="img" width="100%" height="100%"
 viewBox="0.00 0.00 605.00 391.00" xmlns="http://www.w3.org/2000/svg" xmlns:xlink="http://www.w3.org/1999/xlink">
<g id="graph0" class="graph" transform="scale(1 1) rotate(0) translate(25.2 365.72)">
<title>BRG</title>
<text xml:space="preserve" text-anchor="start" x="44.73" y="-322.22" font-family="Aptos" font-weight="bold" font-size="17.00" fill="#002060">Two parallel counter machines — no encoded FSM state register</text>
<g id="clust1" class="cluster">
<title>cluster_tx</title>
<path fill="none" stroke="#aeb9cc" d="M20,-8C20,-8 239,-8 239,-8 245,-8 251,-14 251,-20 251,-20 251,-233.4 251,-233.4 251,-239.4 245,-245.4 239,-245.4 239,-245.4 20,-245.4 20,-245.4 14,-245.4 8,-239.4 8,-233.4 8,-233.4 8,-20 8,-20 8,-14 14,-8 20,-8"/>
<text xml:space="preserve" text-anchor="middle" x="129.5" y="-226.1" font-family="Aptos" font-size="17.00" fill="#002060">TX path</text>
</g>
<g id="clust2" class="cluster">
<title>cluster_rx</title>
<path fill="none" stroke="#aeb9cc" d="M297,-8C297,-8 519,-8 519,-8 525,-8 531,-14 531,-20 531,-20 531,-233.4 531,-233.4 531,-239.4 525,-245.4 519,-245.4 519,-245.4 297,-245.4 297,-245.4 291,-245.4 285,-239.4 285,-233.4 285,-233.4 285,-20 285,-20 285,-14 291,-8 297,-8"/>
<text xml:space="preserve" text-anchor="middle" x="408" y="-226.1" font-family="Aptos" font-size="17.00" fill="#002060">RX 16× path</text>
</g>
<!-- reset -->
<g id="node1" class="node">
<title>reset</title>
<ellipse fill="#002060" stroke="#002060" stroke-width="2.2" cx="203" cy="-306.36" rx="5.76" ry="5.76"/>
</g>
<!-- TXCOUNT -->
<g id="node2" class="node">
<title>TXCOUNT</title>
<path fill="#d9e1f2" stroke="#002060" stroke-width="2.2" d="M100.27,-209C100.27,-209 27.73,-209 27.73,-209 21.73,-209 15.73,-203 15.73,-197 15.73,-197 15.73,-170.6 15.73,-170.6 15.73,-164.6 21.73,-158.6 27.73,-158.6 27.73,-158.6 100.27,-158.6 100.27,-158.6 106.27,-158.6 112.27,-164.6 112.27,-170.6 112.27,-170.6 112.27,-197 112.27,-197 112.27,-203 106.27,-209 100.27,-209"/>
<text xml:space="preserve" text-anchor="start" x="27.25" y="-190.2" font-family="Aptos" font-weight="bold" font-size="14.00" fill="#17233d">COUNT TX</text>
<text xml:space="preserve" text-anchor="start" x="34.02" y="-178.9" font-family="Aptos" font-size="11.00" fill="#17233d">tx_enable = 0</text>
<text xml:space="preserve" text-anchor="start" x="34.28" y="-167.9" font-family="Aptos" font-size="11.00" fill="#17233d">tx_counter++</text>
</g>
<!-- reset&#45;&gt;TXCOUNT -->
<g id="edge1" class="edge">
<title>reset&#45;&gt;TXCOUNT</title>
<path fill="none" stroke="#0563c1" stroke-width="2" d="M198.38,-301.35C183.42,-288.37 135.33,-246.66 100.95,-216.85"/>
<polygon fill="#0563c1" stroke="#0563c1" stroke-width="2" points="103.14,-215.04 95.26,-211.91 99.47,-219.27 103.14,-215.04"/>
<text xml:space="preserve" text-anchor="middle" x="168.42" y="-256.7" font-family="Aptos" font-size="11.00" fill="#17233d">reset</text>
</g>
<!-- RXCOUNT -->
<g id="node3" class="node">
<title>RXCOUNT</title>
<path fill="#f0e7ff" stroke="#002060" stroke-width="2.2" d="M378.66,-209C378.66,-209 305.34,-209 305.34,-209 299.34,-209 293.34,-203 293.34,-197 293.34,-197 293.34,-170.6 293.34,-170.6 293.34,-164.6 299.34,-158.6 305.34,-158.6 305.34,-158.6 378.66,-158.6 378.66,-158.6 384.66,-158.6 390.66,-164.6 390.66,-170.6 390.66,-170.6 390.66,-197 390.66,-197 390.66,-203 384.66,-209 378.66,-209"/>
<text xml:space="preserve" text-anchor="start" x="304.86" y="-190.2" font-family="Aptos" font-weight="bold" font-size="14.00" fill="#17233d">COUNT RX</text>
<text xml:space="preserve" text-anchor="start" x="320.88" y="-178.9" font-family="Aptos" font-size="11.00" fill="#17233d">rx_en = 0</text>
<text xml:space="preserve" text-anchor="start" x="311.97" y="-167.9" font-family="Aptos" font-size="11.00" fill="#17233d">rx_counter++</text>
</g>
<!-- reset&#45;&gt;RXCOUNT -->
<g id="edge2" class="edge">
<title>reset&#45;&gt;RXCOUNT</title>
<path fill="none" stroke="#0563c1" stroke-width="2" d="M207.62,-301.35C222.58,-288.37 270.67,-246.66 305.05,-216.85"/>
<polygon fill="#0563c1" stroke="#0563c1" stroke-width="2" points="306.53,-219.27 310.74,-211.91 302.86,-215.04 306.53,-219.27"/>
<text xml:space="preserve" text-anchor="middle" x="270.43" y="-256.7" font-family="Aptos" font-size="11.00" fill="#17233d">reset</text>
</g>
<!-- TXCOUNT&#45;&gt;TXCOUNT -->
<g id="edge3" class="edge">
<title>TXCOUNT&#45;&gt;TXCOUNT</title>
<path fill="none" stroke="#0563c1" stroke-width="2" d="M113.3,-195.69C139.02,-197.56 162.27,-193.6 162.27,-183.8 162.27,-175.42 145.26,-171.31 124.24,-171.47"/>
<polygon fill="#0563c1" stroke="#0563c1" stroke-width="2" points="124.2,-168.67 116.33,-171.79 124.43,-174.26 124.2,-168.67"/>
<text xml:space="preserve" text-anchor="middle" x="218.83" y="-180.5" font-family="Aptos" font-size="11.00" fill="#17233d">tx_counter &lt; TX_DIV &#45; 1</text>
</g>
<!-- TXPULSE -->
<g id="node4" class="node">
<title>TXPULSE</title>
<path fill="#ccffcc" stroke="#002060" stroke-width="2.2" d="M201.47,-77.4C201.47,-77.4 56.53,-77.4 56.53,-77.4 50.53,-77.4 44.53,-71.4 44.53,-65.4 44.53,-65.4 44.53,-28 44.53,-28 44.53,-22 50.53,-16 56.53,-16 56.53,-16 201.47,-16 201.47,-16 207.47,-16 213.47,-22 213.47,-28 213.47,-28 213.47,-65.4 213.47,-65.4 213.47,-71.4 207.47,-77.4 201.47,-77.4"/>
<text xml:space="preserve" text-anchor="start" x="106.44" y="-58.6" font-family="Aptos" font-weight="bold" font-size="14.00" fill="#17233d">PULSE</text>
<text xml:space="preserve" text-anchor="start" x="56.05" y="-47.3" font-family="Aptos" font-size="11.00" fill="#17233d">when tx_counter == TX_DIV &#45; 1</text>
<text xml:space="preserve" text-anchor="start" x="96.88" y="-36.3" font-family="Aptos" font-size="11.00" fill="#17233d">tx_counter = 0</text>
<text xml:space="preserve" text-anchor="start" x="73.82" y="-25.3" font-family="Aptos" font-size="11.00" fill="#17233d">tx_enable = 1 for one clk</text>
</g>
<!-- TXCOUNT&#45;&gt;TXPULSE -->
<g id="edge4" class="edge">
<title>TXCOUNT&#45;&gt;TXPULSE</title>
<path fill="none" stroke="#0563c1" stroke-width="2" d="M56.7,-157.68C53.93,-143.52 52.79,-125.84 59.16,-111.4 63.33,-101.94 69.68,-93.28 76.89,-85.6"/>
<polygon fill="#0563c1" stroke="#0563c1" stroke-width="2" points="78.45,-87.99 82.17,-80.37 74.51,-84.01 78.45,-87.99"/>
<text xml:space="preserve" text-anchor="middle" x="91.08" y="-114.7" font-family="Aptos" font-size="11.00" fill="#17233d">terminal count</text>
</g>
<!-- RXCOUNT&#45;&gt;RXCOUNT -->
<g id="edge6" class="edge">
<title>RXCOUNT&#45;&gt;RXCOUNT</title>
<path fill="none" stroke="#0563c1" stroke-width="2" d="M391.75,-195.7C417.47,-197.54 440.66,-193.57 440.66,-183.8 440.66,-175.44 423.69,-171.33 402.68,-171.47"/>
<polygon fill="#0563c1" stroke="#0563c1" stroke-width="2" points="402.66,-168.66 394.77,-171.78 402.88,-174.26 402.66,-168.66"/>
<text xml:space="preserve" text-anchor="middle" x="497.83" y="-180.5" font-family="Aptos" font-size="11.00" fill="#17233d">rx_counter &lt; RX_DIV &#45; 1</text>
</g>
<!-- RXPULSE -->
<g id="node5" class="node">
<title>RXPULSE</title>
<path fill="#ffff99" stroke="#002060" stroke-width="2.2" d="M481.08,-77.4C481.08,-77.4 334.92,-77.4 334.92,-77.4 328.92,-77.4 322.92,-71.4 322.92,-65.4 322.92,-65.4 322.92,-28 322.92,-28 322.92,-22 328.92,-16 334.92,-16 334.92,-16 481.08,-16 481.08,-16 487.08,-16 493.08,-22 493.08,-28 493.08,-28 493.08,-65.4 493.08,-65.4 493.08,-71.4 487.08,-77.4 481.08,-77.4"/>
<text xml:space="preserve" text-anchor="start" x="385.44" y="-58.6" font-family="Aptos" font-weight="bold" font-size="14.00" fill="#17233d">PULSE</text>
<text xml:space="preserve" text-anchor="start" x="334.44" y="-47.3" font-family="Aptos" font-size="11.00" fill="#17233d">when rx_counter == RX_DIV &#45; 1</text>
<text xml:space="preserve" text-anchor="start" x="375.57" y="-36.3" font-family="Aptos" font-size="11.00" fill="#17233d">rx_counter = 0</text>
<text xml:space="preserve" text-anchor="start" x="361.68" y="-25.3" font-family="Aptos" font-size="11.00" fill="#17233d">rx_en = 1 for one clk</text>
</g>
<!-- RXCOUNT&#45;&gt;RXPULSE -->
<g id="edge7" class="edge">
<title>RXCOUNT&#45;&gt;RXPULSE</title>
<path fill="none" stroke="#0563c1" stroke-width="2" d="M334.11,-157.65C331.07,-143.49 329.68,-125.81 336.16,-111.4 340.42,-101.94 346.85,-93.31 354.15,-85.67"/>
<polygon fill="#0563c1" stroke="#0563c1" stroke-width="2" points="355.72,-88.05 359.52,-80.47 351.82,-84.03 355.72,-88.05"/>
<text xml:space="preserve" text-anchor="middle" x="368.08" y="-114.7" font-family="Aptos" font-size="11.00" fill="#17233d">terminal count</text>
</g>
<!-- TXPULSE&#45;&gt;TXCOUNT -->
<g id="edge5" class="edge">
<title>TXPULSE&#45;&gt;TXCOUNT</title>
<path fill="none" stroke="#0563c1" stroke-width="2" d="M135.82,-78.15C137.62,-92.8 137.54,-110.26 131,-124.6 126.59,-134.27 119.69,-142.96 111.96,-150.49"/>
<polygon fill="#0563c1" stroke="#0563c1" stroke-width="2" points="110.35,-148.17 106.27,-155.6 114.09,-152.34 110.35,-148.17"/>
<text xml:space="preserve" text-anchor="middle" x="152.44" y="-114.7" font-family="Aptos" font-size="11.00" fill="#17233d">next clk</text>
</g>
<!-- RXPULSE&#45;&gt;RXCOUNT -->
<g id="edge8" class="edge">
<title>RXPULSE&#45;&gt;RXCOUNT</title>
<path fill="none" stroke="#0563c1" stroke-width="2" d="M413.65,-78.13C414.99,-92.78 414.48,-110.24 408,-124.6 403.66,-134.21 396.87,-142.86 389.26,-150.38"/>
<polygon fill="#0563c1" stroke="#0563c1" stroke-width="2" points="387.7,-148.02 383.67,-155.48 391.47,-152.16 387.7,-148.02"/>
<text xml:space="preserve" text-anchor="middle" x="429.48" y="-114.7" font-family="Aptos" font-size="11.00" fill="#17233d">next clk</text>
</g>
</g>
</svg>
