<!-- Generated by graphviz version 14.1.3 (20260303.0454)
 -->
<!-- Title: Receiver Pages: 1 -->
<svg role="img" width="100%" height="100%"
 viewBox="0.00 0.00 1254.00 270.00" xmlns="http://www.w3.org/2000/svg" xmlns:xlink="http://www.w3.org/1999/xlink">
<g id="graph0" class="graph" transform="scale(1 1) rotate(0) translate(25.2 244.88)">
<title>Receiver</title>
<!-- reset -->
<g id="node1" class="node">
<title>reset</title>
<ellipse fill="#002060" stroke="#002060" stroke-width="2.2" cx="5.76" cy="-76.64" rx="5.76" ry="5.76"/>
</g>
<!-- IDLE -->
<g id="node2" class="node">
<title>IDLE</title>
<ellipse fill="#ccffcc" stroke="#002060" stroke-width="2.2" cx="141.01" cy="-76.64" rx="50.49" ry="35.64"/>
<text xml:space="preserve" text-anchor="start" x="123.89" y="-83.04" font-family="Aptos" font-weight="bold" font-size="14.00" fill="#17233d">IDLE</text>
<text xml:space="preserve" text-anchor="start" x="116.83" y="-71.74" font-family="Aptos" font-size="11.00" fill="#17233d">sample = 0</text>
<text xml:space="preserve" text-anchor="start" x="120.19" y="-60.74" font-family="Aptos" font-size="11.00" fill="#17233d">index = 0</text>
</g>
<!-- reset&#45;&gt;IDLE -->
<g id="edge1" class="edge">
<title>reset&#45;&gt;IDLE</title>
<path fill="none" stroke="#0563c1" stroke-width="2" d="M12.49,-76.64C24.18,-76.64 51.94,-76.64 78.58,-76.64"/>
<polygon fill="#0563c1" stroke="#0563c1" stroke-width="2" points="78.46,-79.44 86.46,-76.64 78.46,-73.84 78.46,-79.44"/>
<text xml:space="preserve" text-anchor="middle" x="51.02" y="-79.94" font-family="Aptos" font-size="11.00" fill="#17233d">rst</text>
</g>
<!-- IDLE&#45;&gt;IDLE -->
<g id="edge8" class="edge">
<title>IDLE&#45;&gt;IDLE</title>
<path fill="none" stroke="#0563c1" stroke-width="2" d="M126.04,-111.38C120.99,-136.8 125.98,-162.28 141.01,-162.28 153.92,-162.28 159.42,-143.46 157.51,-122.04"/>
<polygon fill="#0563c1" stroke="#0563c1" stroke-width="2" points="160.32,-121.89 156.41,-114.38 154.78,-122.69 160.32,-121.89"/>
<text xml:space="preserve" text-anchor="middle" x="141.01" y="-165.58" font-family="Aptos" font-size="11.00" fill="#17233d">rx_en &amp;&amp; rx == 1</text>
</g>
<!-- START -->
<g id="node3" class="node">
<title>START</title>
<ellipse fill="#ffff99" stroke="#002060" stroke-width="2.2" cx="431.33" cy="-107.64" rx="62.08" ry="35.64"/>
<text xml:space="preserve" text-anchor="start" x="407.99" y="-114.04" font-family="Aptos" font-weight="bold" font-size="14.00" fill="#17233d">START</text>
<text xml:space="preserve" text-anchor="start" x="398.95" y="-102.74" font-family="Aptos" font-size="11.00" fill="#17233d">confirm low at</text>
<text xml:space="preserve" text-anchor="start" x="404.05" y="-91.74" font-family="Aptos" font-size="11.00" fill="#17233d">sample == 7</text>
</g>
<!-- IDLE&#45;&gt;START -->
<g id="edge2" class="edge">
<title>IDLE&#45;&gt;START</title>
<path fill="none" stroke="#0563c1" stroke-width="2" d="M186.47,-93.68C198.91,-97.71 212.58,-101.47 225.5,-103.64 268.94,-110.92 318.29,-112.1 357.67,-111.37"/>
<polygon fill="#0563c1" stroke="#0563c1" stroke-width="2" points="357.54,-114.17 365.47,-111.18 357.41,-108.57 357.54,-114.17"/>
<text xml:space="preserve" text-anchor="middle" x="280.37" y="-114.83" font-family="Aptos" font-size="11.00" fill="#17233d">rx_en &amp;&amp; rx == 0</text>
</g>
<!-- START&#45;&gt;IDLE -->
<g id="edge4" class="edge">
<title>START&#45;&gt;IDLE</title>
<path fill="none" stroke="#0563c1" stroke-width="2" d="M385.22,-82.89C369.83,-75.72 352.22,-68.85 335.24,-65.24 290.93,-55.8 239.69,-59.47 201.12,-65.05"/>
<polygon fill="#0563c1" stroke="#0563c1" stroke-width="2" points="201.07,-62.23 193.58,-66.21 201.92,-67.76 201.07,-62.23"/>
<text xml:space="preserve" text-anchor="middle" x="280.37" y="-81.74" font-family="Aptos" font-size="11.00" fill="#17233d">sample == 7 &amp;&amp; rx == 1</text>
<text xml:space="preserve" text-anchor="middle" x="280.37" y="-68.54" font-family="Aptos" font-size="11.00" fill="#17233d">false start</text>
</g>
<!-- DATA -->
<g id="node4" class="node">
<title>DATA</title>
<ellipse fill="#d9e1f2" stroke="#002060" stroke-width="2.2" cx="794.58" cy="-107.64" rx="73.45" ry="35.64"/>
<text xml:space="preserve" text-anchor="start" x="774.75" y="-114.04" font-family="Aptos" font-weight="bold" font-size="14.00" fill="#17233d">DATA</text>
<text xml:space="preserve" text-anchor="start" x="757.68" y="-102.74" font-family="Aptos" font-size="11.00" fill="#17233d">at sample == 15:</text>
<text xml:space="preserve" text-anchor="start" x="754.17" y="-91.74" font-family="Aptos" font-size="11.00" fill="#17233d">temp[index] &lt;= rx</text>
</g>
<!-- START&#45;&gt;DATA -->
<g id="edge3" class="edge">
<title>START&#45;&gt;DATA</title>
<path fill="none" stroke="#0563c1" stroke-width="2" d="M494.43,-107.64C553.77,-107.64 643.65,-107.64 709.41,-107.64"/>
<polygon fill="#0563c1" stroke="#0563c1" stroke-width="2" points="709.13,-110.44 717.13,-107.64 709.13,-104.84 709.13,-110.44"/>
<text xml:space="preserve" text-anchor="middle" x="607.27" y="-110.94" font-family="Aptos" font-size="11.00" fill="#17233d">rx_en &amp;&amp; sample == 7 &amp;&amp; rx == 0</text>
</g>
<!-- DATA&#45;&gt;DATA -->
<g id="edge5" class="edge">
<title>DATA&#45;&gt;DATA</title>
<path fill="none" stroke="#0563c1" stroke-width="2" d="M766.2,-141.49C755.95,-167.2 765.41,-193.28 794.58,-193.28 819.77,-193.28 830.27,-173.85 826.07,-151.99"/>
<polygon fill="#0563c1" stroke="#0563c1" stroke-width="2" points="828.77,-151.27 823.82,-144.39 823.4,-152.86 828.77,-151.27"/>
<text xml:space="preserve" text-anchor="middle" x="794.58" y="-209.78" font-family="Aptos" font-size="11.00" fill="#17233d">sample == 15 &amp;&amp; index &lt; 7</text>
<text xml:space="preserve" text-anchor="middle" x="794.58" y="-196.58" font-family="Aptos" font-size="11.00" fill="#17233d">sample bit, index++</text>
</g>
<!-- STOP -->
<g id="node5" class="node">
<title>STOP</title>
<ellipse fill="#ffe2d5" stroke="#002060" stroke-width="2.2" cx="1135.04" cy="-35.64" rx="68.48" ry="35.64"/>
<text xml:space="preserve" text-anchor="start" x="1116.75" y="-42.04" font-family="Aptos" font-weight="bold" font-size="14.00" fill="#17233d">STOP</text>
<text xml:space="preserve" text-anchor="start" x="1098.13" y="-30.74" font-family="Aptos" font-size="11.00" fill="#17233d">at sample == 15:</text>
<text xml:space="preserve" text-anchor="start" x="1104.55" y="-19.74" font-family="Aptos" font-size="11.00" fill="#17233d">check rx == 1</text>
</g>
<!-- DATA&#45;&gt;STOP -->
<g id="edge6" class="edge">
<title>DATA&#45;&gt;STOP</title>
<path fill="none" stroke="#0563c1" stroke-width="2" d="M862.86,-93.33C919.75,-81.22 1001.16,-63.91 1059.92,-51.41"/>
<polygon fill="#0563c1" stroke="#0563c1" stroke-width="2" points="1060.41,-54.16 1067.65,-49.76 1059.24,-48.69 1060.41,-54.16"/>
<text xml:space="preserve" text-anchor="middle" x="967.29" y="-100.85" font-family="Aptos" font-size="11.00" fill="#17233d">sample == 15 &amp;&amp; index == 7</text>
<text xml:space="preserve" text-anchor="middle" x="967.29" y="-87.65" font-family="Aptos" font-size="11.00" fill="#17233d">sample data[7]</text>
</g>
<!-- STOP&#45;&gt;IDLE -->
<g id="edge7" class="edge">
<title>STOP&#45;&gt;IDLE</title>
<path fill="none" stroke="#0563c1" stroke-width="2" d="M1066.67,-29.23C915.03,-16.39 535.85,6.84 225.5,-47.64 215.73,-49.35 205.57,-52.05 195.85,-55.12"/>
<polygon fill="#0563c1" stroke="#0563c1" stroke-width="2" points="195.07,-52.43 188.37,-57.62 196.85,-57.74 195.07,-52.43"/>
<text xml:space="preserve" text-anchor="middle" x="607.27" y="-46.22" font-family="Aptos" font-size="11.00" fill="#17233d">sample == 15</text>
<text xml:space="preserve" text-anchor="middle" x="607.27" y="-33.02" font-family="Aptos" font-size="11.00" fill="#17233d">rx == 1: data_out &lt;= temp, rdy &lt;= 1</text>
<text xml:space="preserve" text-anchor="middle" x="607.27" y="-19.82" font-family="Aptos" font-size="11.00" fill="#17233d">rx == 0: discard</text>
</g>
</g>
</svg>
