<!-- Generated by graphviz version 14.1.3 (20260303.0454)
 -->
<!-- Title: Sender Pages: 1 -->
<svg role="img" width="100%" height="100%"
 viewBox="0.00 0.00 1229.00 279.00" xmlns="http://www.w3.org/2000/svg" xmlns:xlink="http://www.w3.org/1999/xlink">
<g id="graph0" class="graph" transform="scale(1 1) rotate(0) translate(25.2 254.23)">
<title>Sender</title>
<!-- reset -->
<g id="node1" class="node">
<title>reset</title>
<ellipse fill="#002060" stroke="#002060" stroke-width="2.2" cx="5.76" cy="-43.42" rx="5.76" ry="5.76"/>
</g>
<!-- IDLE -->
<g id="node2" class="node">
<title>IDLE</title>
<ellipse fill="#ccffcc" stroke="#002060" stroke-width="2.2" cx="136.26" cy="-43.42" rx="45.74" ry="43.42"/>
<text xml:space="preserve" text-anchor="start" x="119.14" y="-55.32" font-family="Aptos" font-weight="bold" font-size="14.00" fill="#17233d">IDLE</text>
<text xml:space="preserve" text-anchor="start" x="123.38" y="-44.02" font-family="Aptos" font-size="11.00" fill="#17233d">tx = 1</text>
<text xml:space="preserve" text-anchor="start" x="115.44" y="-33.02" font-family="Aptos" font-size="11.00" fill="#17233d">index = 0</text>
<text xml:space="preserve" text-anchor="start" x="117.26" y="-22.02" font-family="Aptos" font-size="11.00" fill="#17233d">busy = 0</text>
</g>
<!-- reset&#45;&gt;IDLE -->
<g id="edge1" class="edge">
<title>reset&#45;&gt;IDLE</title>
<path fill="none" stroke="#0563c1" stroke-width="2" d="M12.62,-43.42C24.48,-43.42 52.48,-43.42 78.73,-43.42"/>
<polygon fill="#0563c1" stroke="#0563c1" stroke-width="2" points="78.4,-46.22 86.4,-43.42 78.4,-40.62 78.4,-46.22"/>
<text xml:space="preserve" text-anchor="middle" x="51.02" y="-46.72" font-family="Aptos" font-size="11.00" fill="#17233d">rst</text>
</g>
<!-- IDLE&#45;&gt;IDLE -->
<g id="edge7" class="edge">
<title>IDLE&#45;&gt;IDLE</title>
<path fill="none" stroke="#0563c1" stroke-width="2" d="M121.47,-85.2C117.76,-111.58 122.69,-136.83 136.26,-136.83 147.97,-136.83 153.24,-118.02 152.08,-95.9"/>
<polygon fill="#0563c1" stroke="#0563c1" stroke-width="2" points="154.9,-95.91 151.34,-88.22 149.32,-96.45 154.9,-95.91"/>
<text xml:space="preserve" text-anchor="middle" x="136.26" y="-140.13" font-family="Aptos" font-size="11.00" fill="#17233d">!wr_en</text>
</g>
<!-- START -->
<g id="node3" class="node">
<title>START</title>
<ellipse fill="#ffff99" stroke="#002060" stroke-width="2.2" cx="433.12" cy="-118.42" rx="78.48" ry="35.64"/>
<text xml:space="preserve" text-anchor="start" x="409.78" y="-124.82" font-family="Aptos" font-weight="bold" font-size="14.00" fill="#17233d">START</text>
<text xml:space="preserve" text-anchor="start" x="389.15" y="-113.52" font-family="Aptos" font-size="11.00" fill="#17233d">data already latched</text>
<text xml:space="preserve" text-anchor="start" x="402.27" y="-102.52" font-family="Aptos" font-size="11.00" fill="#17233d">wait for tx_en</text>
</g>
<!-- IDLE&#45;&gt;START -->
<g id="edge2" class="edge">
<title>IDLE&#45;&gt;START</title>
<path fill="none" stroke="#0563c1" stroke-width="2" d="M181.4,-54.64C226.61,-66.14 297.84,-84.26 352.85,-98.25"/>
<polygon fill="#0563c1" stroke="#0563c1" stroke-width="2" points="351.9,-100.9 360.34,-100.16 353.28,-95.47 351.9,-100.9"/>
<text xml:space="preserve" text-anchor="middle" x="268.32" y="-93.14" font-family="Aptos" font-size="11.00" fill="#17233d">wr_en / data &lt;= data_in</text>
</g>
<!-- START&#45;&gt;START -->
<g id="edge8" class="edge">
<title>START&#45;&gt;START</title>
<path fill="none" stroke="#0563c1" stroke-width="2" d="M405.87,-152.71C396.36,-178.28 405.44,-204.05 433.12,-204.05 457.02,-204.05 467.06,-184.85 463.23,-163.14"/>
<polygon fill="#0563c1" stroke="#0563c1" stroke-width="2" points="465.99,-162.61 461.17,-155.63 460.59,-164.09 465.99,-162.61"/>
<text xml:space="preserve" text-anchor="middle" x="433.12" y="-207.35" font-family="Aptos" font-size="11.00" fill="#17233d">!tx_en</text>
</g>
<!-- DATA -->
<g id="node4" class="node">
<title>DATA</title>
<ellipse fill="#d9e1f2" stroke="#002060" stroke-width="2.2" cx="763.94" cy="-122.42" rx="66.03" ry="43.42"/>
<text xml:space="preserve" text-anchor="start" x="744.11" y="-134.32" font-family="Aptos" font-weight="bold" font-size="14.00" fill="#17233d">DATA</text>
<text xml:space="preserve" text-anchor="start" x="728.77" y="-123.02" font-family="Aptos" font-size="11.00" fill="#17233d">tx = data[index]</text>
<text xml:space="preserve" text-anchor="start" x="743.62" y="-112.02" font-family="Aptos" font-size="11.00" fill="#17233d">LSB first</text>
<text xml:space="preserve" text-anchor="start" x="744.95" y="-101.02" font-family="Aptos" font-size="11.00" fill="#17233d">busy = 1</text>
</g>
<!-- START&#45;&gt;DATA -->
<g id="edge3" class="edge">
<title>START&#45;&gt;DATA</title>
<path fill="none" stroke="#0563c1" stroke-width="2" d="M512.47,-119.37C564.96,-120.01 633.75,-120.84 685.96,-121.48"/>
<polygon fill="#0563c1" stroke="#0563c1" stroke-width="2" points="685.78,-124.28 693.81,-121.58 685.85,-118.68 685.78,-124.28"/>
<text xml:space="preserve" text-anchor="middle" x="604.75" y="-124.42" font-family="Aptos" font-size="11.00" fill="#17233d">tx_en / tx &lt;= 0, index &lt;= 0</text>
</g>
<!-- DATA&#45;&gt;DATA -->
<g id="edge4" class="edge">
<title>DATA&#45;&gt;DATA</title>
<path fill="none" stroke="#0563c1" stroke-width="2" d="M736.72,-162.74C729.06,-189.65 738.13,-215.83 763.94,-215.83 786.32,-215.83 796.11,-196.14 793.32,-173.37"/>
<polygon fill="#0563c1" stroke="#0563c1" stroke-width="2" points="796.1,-172.99 791.76,-165.71 790.62,-174.11 796.1,-172.99"/>
<text xml:space="preserve" text-anchor="middle" x="763.94" y="-219.13" font-family="Aptos" font-size="11.00" fill="#17233d">tx_en &amp;&amp; index &lt; 7 / index++</text>
</g>
<!-- STOP -->
<g id="node5" class="node">
<title>STOP</title>
<ellipse fill="#ffe2d5" stroke="#002060" stroke-width="2.2" cx="1118.96" cy="-43.42" rx="59.92" ry="35.64"/>
<text xml:space="preserve" text-anchor="start" x="1100.68" y="-49.82" font-family="Aptos" font-weight="bold" font-size="14.00" fill="#17233d">STOP</text>
<text xml:space="preserve" text-anchor="start" x="1088.11" y="-38.52" font-family="Aptos" font-size="11.00" fill="#17233d">wait for tx_en</text>
<text xml:space="preserve" text-anchor="start" x="1095.23" y="-27.52" font-family="Aptos" font-size="11.00" fill="#17233d">then tx = 1</text>
</g>
<!-- DATA&#45;&gt;STOP -->
<g id="edge5" class="edge">
<title>DATA&#45;&gt;STOP</title>
<path fill="none" stroke="#0563c1" stroke-width="2" d="M827.65,-108.38C890.52,-94.31 986.98,-72.73 1051.24,-58.35"/>
<polygon fill="#0563c1" stroke="#0563c1" stroke-width="2" points="1051.51,-61.16 1058.7,-56.68 1050.29,-55.69 1051.51,-61.16"/>
<text xml:space="preserve" text-anchor="middle" x="944.5" y="-102.37" font-family="Aptos" font-size="11.00" fill="#17233d">tx_en &amp;&amp; index == 7 / tx &lt;= data[7]</text>
</g>
<!-- STOP&#45;&gt;IDLE -->
<g id="edge6" class="edge">
<title>STOP&#45;&gt;IDLE</title>
<path fill="none" stroke="#0563c1" stroke-width="2" d="M1058.14,-43.42C881.82,-43.42 365.7,-43.42 193.74,-43.42"/>
<polygon fill="#0563c1" stroke="#0563c1" stroke-width="2" points="193.94,-40.62 185.94,-43.42 193.94,-46.22 193.94,-40.62"/>
<text xml:space="preserve" text-anchor="middle" x="604.75" y="-46.72" font-family="Aptos" font-size="11.00" fill="#17233d">tx_en / tx &lt;= 1</text>
</g>
<!-- STOP&#45;&gt;STOP -->
<g id="edge9" class="edge">
<title>STOP&#45;&gt;STOP</title>
<path fill="none" stroke="#0563c1" stroke-width="2" d="M1090.85,-75.93C1079.6,-102.07 1088.97,-129.05 1118.96,-129.05 1144.96,-129.05 1155.46,-108.76 1150.46,-86.32"/>
<polygon fill="#0563c1" stroke="#0563c1" stroke-width="2" points="1153.15,-85.54 1148.01,-78.81 1147.83,-87.28 1153.15,-85.54"/>
<text xml:space="preserve" text-anchor="middle" x="1118.96" y="-132.35" font-family="Aptos" font-size="11.00" fill="#17233d">!tx_en</text>
</g>
</g>
</svg>
